<?xml version="1.0" encoding="utf-8"?>
<!-- Generator: Adobe Illustrator 23.0.3, SVG Export Plug-In . SVG Version: 6.00 Build 0)  -->
<svg version="1.1" id="Calque_1" xmlns="http://www.w3.org/2000/svg" xmlns:xlink="http://www.w3.org/1999/xlink" x="0px" y="0px"
	 viewBox="0 0 76 50" style="enable-background:new 0 0 76 50;" xml:space="preserve">
<style type="text/css">
	.st0{fill:#D32027;stroke:#FDB81A;stroke-width:0.75;}
</style>
<title>Logo_blue</title>
<desc>Created with Sketch.</desc>
<g id="Web">
	<g id="Teste-07" transform="translate(-23.000000, -14.000000)">
		<g id="Logo_blue" transform="translate(23.000000, 14.000000)">
			<g id="XMLID_140_" transform="translate(16.000000, 0.000000)">
				<g id="XMLID_143_">
					<path id="XMLID_144_" class="st0" d="M23.8,3c-2.3,0-4,2.3-4,5.2c0,2.5,1.3,4.5,3.1,5c-0.6,5-5,9-10.3,9
						c-5.6,0-10.2-4.5-10.2-10s4.5-10,10.2-10c1,0,2,0.1,3,0.5c0.5,0.1,1-0.1,1.1-0.6c0.2-0.5-0.1-1-0.6-1.1
						c-1.1-0.4-2.3-0.5-3.5-0.5c-6.6,0-12,5.3-12,11.7c0,6.5,5.4,11.8,12,11.8c6.2,0,11.5-4.7,12.1-10.7c1.9-0.5,3.2-2.6,3.2-5.1
						C27.8,5.3,26,3,23.8,3z M23.8,11.5L23.8,11.5c-1.2-0.1-2.2-1.6-2.2-3.4s1-3.4,2.2-3.4S26,6.3,26,8.1C26,10,25,11.5,23.8,11.5z"
						/>
				</g>
				<g id="XMLID_141_" transform="translate(9.548387, 0.000000)">
					<path id="XMLID_142_" class="st0" d="M27.4,12.2c0,6.5-5.4,11.8-12,11.8c-1.2,0-2.4-0.2-3.5-0.5c-0.5-0.1-0.8-0.6-0.6-1.1
						c0.2-0.5,0.7-0.8,1.1-0.6c1,0.3,2,0.5,3,0.5c5.6,0,10.2-4.5,10.2-10s-4.5-10-10.2-10c-5.2,0-9.7,4-10.2,9
						c1.7,0.5,3.1,2.6,3.1,5v3.2c0,0.5-0.4,0.9-0.9,0.9S6.4,20,6.4,19.6v-3.2c0-1.3-0.5-2.5-1.3-3v6.3c0,0.5-0.4,0.9-0.9,0.9
						s-0.9-0.4-0.9-0.9v-6.4c-0.7,0.6-1.3,1.8-1.3,3v3.2c0,0.5-0.4,0.9-0.9,0.9S0.3,20,0.3,19.5v-3.2c0-2.5,1.3-4.6,3.2-5.1
						c0.6-6,5.9-10.7,12.1-10.7C22,0.5,27.4,5.7,27.4,12.2z"/>
				</g>
			</g>
			<g id="XMLID_136_">
				<g id="XMLID_137_">
					<path id="XMLID_138_" class="st0" d="M16.6,0.1c0.1,0.1,0.2,0.2,0.2,0.3v0.9c0,0.1-0.1,0.3-0.2,0.4c-0.1,0.1-0.2,0.1-0.4,0.1
						H2.2v8.8h10.1c0.1,0,0.2,0.1,0.4,0.2c0.1,0.1,0.2,0.2,0.2,0.3V12c0,0.1-0.1,0.2-0.1,0.3c-0.1,0.1-0.3,0.2-0.4,0.2H2.2v10.8
						c0,0.3-0.1,0.5-0.4,0.5H0.7c-0.2,0-0.5-0.2-0.5-0.5V0.5c0-0.1,0.1-0.2,0.2-0.4C0.5,0.1,0.6,0,0.7,0h15.5
						C16.3,0,16.5,0.1,16.6,0.1z"/>
				</g>
			</g>
			<g id="XMLID_132_" transform="translate(55.000000, 0.000000)">
				<path id="XMLID_133_" class="st0" d="M8.7,0c1.8,0,3.5,0.2,5,0.8S16.5,2,17.6,3c1.1,1,1.9,2.2,2.5,3.8C20.7,8.3,21,10,21,11.9
					s-0.3,3.6-0.9,5.1c-0.6,1.5-1.4,2.7-2.5,3.7c-1.1,1-2.3,1.8-3.9,2.3c-1.5,0.5-3.2,0.8-5,0.8H1c-0.3,0-0.5-0.1-0.5-0.4V0.5
					C0.5,0.2,0.7,0,1,0H8.7z M9,21.9c1.5,0,2.9-0.2,4.1-0.7c1.2-0.5,2.3-1.1,3.1-2c0.8-0.9,1.5-1.9,2-3.2c0.5-1.2,0.7-2.6,0.7-4.2
					c0-1.6-0.2-3-0.7-4.2c-0.5-1.2-1.1-2.3-2-3.2c-0.8-0.9-1.9-1.5-3.1-1.9C11.9,2,10.5,1.8,9,1.8H2.5v20L9,21.9L9,21.9z"/>
			</g>
			<g id="XMLID_110_" transform="translate(2.000000, 30.000000)">
				<path id="XMLID_129_" class="st0" d="M10,0.4c0.1,0.1,0.1,0.1,0.2,0.2c0.1,0.1,0.1,0.2,0,0.3c0,0.1-0.1,0.1-0.1,0.2
					c0,0.1-0.1,0.2-0.1,0.2C10,1.6,9.9,1.7,9.7,1.6c-0.2-0.1-0.6-0.1-1-0.2C8.3,1.4,7.8,1.3,7.4,1.3C6.4,1.3,5.6,1.6,5.1,2
					S4.3,3.3,4.3,4.4v1.8h4.3c0.1,0,0.2,0.1,0.2,0.1c0.1,0.1,0.1,0.2,0.1,0.3V7c0,0.1-0.1,0.2-0.1,0.2C8.7,7.3,8.6,7.3,8.5,7.3H4.2
					v11.8c0,0.1-0.1,0.2-0.1,0.2c-0.1,0.1-0.2,0.1-0.2,0.1H3.1c-0.2,0-0.4-0.1-0.4-0.4V7.4h-2C0.5,7.4,0.4,7.3,0.4,7V6.6
					c0-0.1,0.1-0.2,0.1-0.3c0.1-0.1,0.2-0.1,0.2-0.1h2V4.6c0-1.4,0.4-2.5,1.2-3.3s2-1.2,3.4-1.2c0.6,0,1.1,0.1,1.5,0.1
					C9.3,0.3,9.7,0.3,10,0.4z"/>
				<path id="XMLID_126_" class="st0" d="M16.5,5.9c0.9,0,1.8,0.2,2.6,0.5c0.8,0.4,1.5,0.8,2.1,1.5c0.6,0.6,1.1,1.4,1.4,2.2
					c0.4,0.9,0.5,1.8,0.5,2.8c0,1.1-0.2,2-0.5,2.8c-0.4,0.9-0.8,1.6-1.4,2.2c-0.6,0.6-1.3,1.1-2.1,1.4c-0.8,0.4-1.7,0.5-2.6,0.5
					c-0.9,0-1.8-0.2-2.7-0.5s-1.5-0.8-2.1-1.4c-0.6-0.6-1.1-1.4-1.4-2.2C10,14.9,9.9,14,9.9,13c0-1.1,0.2-2,0.5-2.8
					c0.4-0.9,0.8-1.6,1.4-2.2c0.6-0.6,1.3-1.1,2.1-1.5C14.7,6,15.5,5.9,16.5,5.9z M16.5,18.6c0.7,0,1.4-0.1,2-0.4
					c0.7-0.3,1.2-0.6,1.7-1.1c0.5-0.5,0.8-1.1,1.1-1.8s0.4-1.5,0.4-2.4s-0.1-1.6-0.4-2.4s-0.6-1.3-1.1-1.8c-0.5-0.5-1-0.9-1.7-1.1
					c-0.7-0.3-1.3-0.4-2-0.4c-0.7,0-1.4,0.1-2,0.4c-0.6,0.3-1.1,0.6-1.6,1.1c-0.5,0.5-0.8,1.1-1.1,1.8c-0.2,0.7-0.4,1.5-0.4,2.4
					s0.1,1.6,0.4,2.4c0.2,0.7,0.6,1.3,1.1,1.8c0.5,0.5,1,0.9,1.6,1.1C15.1,18.5,15.8,18.6,16.5,18.6z"/>
				<path id="XMLID_118_" class="st0" d="M35,6.2c0.2,0.1,0.3,0.2,0.3,0.4c0,0.1,0,0.2,0,0.4c0,0.1,0,0.3-0.1,0.4
					c0,0.1-0.1,0.2-0.1,0.3c-0.1,0.1-0.2,0.1-0.3,0.1l0,0c0,0,0.1,0,0,0c-0.2-0.1-0.5-0.1-0.8-0.2c-0.3-0.1-0.6-0.1-0.9-0.1
					c-0.6,0-1.2,0.2-1.7,0.4C30.9,8,30.4,8.5,30,9c-0.4,0.5-0.7,1.2-1,1.9c-0.2,0.8-0.4,1.6-0.4,2.5v5.7c0,0.2-0.1,0.4-0.4,0.4h-0.8
					c-0.2,0-0.4-0.1-0.4-0.4V6.5c0-0.2,0.1-0.4,0.4-0.4h0.7c0.1,0,0.2,0.1,0.2,0.1c0.1,0.1,0.1,0.2,0.1,0.3v0.7v1.5l0,0
					c0.4-0.8,1.2-1.5,2.1-2.1c0.8-0.6,1.7-0.8,2.8-0.8c0.2,0,0.5,0.1,0.8,0.1C34.5,6,34.8,6.1,35,6.2z"/>
				<path id="XMLID_115_" class="st0" d="M45.4,6.7c0.5-0.3,1.2-0.5,1.8-0.6c0.7-0.2,1.5-0.2,2.6-0.2c0.6,0,1.2,0.1,1.8,0.3
					c0.6,0.2,1.1,0.5,1.5,0.9C53.6,7.5,54,8,54.3,8.6c0.3,0.6,0.4,1.5,0.4,2.4v8.2c0,0.2-0.1,0.4-0.4,0.4h-0.7
					c-0.2,0-0.4-0.1-0.4-0.4v-1.8l0,0c-0.2,0.3-0.7,0.6-1,0.9c-0.3,0.3-0.7,0.6-1.1,0.8c-0.4,0.2-0.8,0.4-1.3,0.5
					c-0.5,0.1-0.9,0.2-1.4,0.2c-0.7,0-1.2-0.1-1.8-0.3c-0.5-0.2-1-0.5-1.4-0.8c-0.4-0.4-0.7-0.8-0.9-1.2c-0.2-0.5-0.4-1-0.4-1.5
					c0-0.9,0.2-1.7,0.7-2.2c0.4-0.6,1-1,1.8-1.4c0.7-0.3,1.5-0.5,2.5-0.6c0.9-0.1,1.9-0.2,2.9-0.2h1.5c0,0,0,0.1,0,0
					c0-0.1,0,0.1,0,0s0,0.1,0,0s0-0.7,0-0.7c0-1.1-0.3-2.1-0.9-2.7c-0.6-0.6-1.6-1-3-1c-0.8,0-1.5,0.1-2,0.2c-0.6,0.2-1,0.3-1.3,0.5
					c-0.1,0.1-0.2,0.1-0.3,0.1c-0.1,0-0.1,0-0.2-0.1c0-0.1-0.1-0.2-0.1-0.4c-0.1-0.2,0,0-0.1-0.4C45.3,7,45.3,7,45.3,6.9
					C45.3,6.9,45.3,6.9,45.4,6.7z M53.2,12.9h-1.1c-0.9,0-1.8,0.1-2.6,0.1c-0.8,0.1-1.5,0.2-2.1,0.5S46.4,14,46,14.4
					c-0.4,0.4-0.5,0.9-0.5,1.5c0,0.8,0.3,1.5,0.9,1.9c0.6,0.5,1.4,0.6,2.5,0.6c0.5,0,0.9-0.1,1.4-0.3c0.5-0.2,1-0.5,1.4-0.8
					c0.4-0.4,0.8-0.8,1.1-1.2c0.3-0.5,0.4-1,0.4-1.6V12.9L53.2,12.9z"/>
				<path id="XMLID_113_" class="st0" d="M61.1,0.7v18.6c0,0.2-0.1,0.4-0.4,0.4H60c-0.2,0-0.4-0.1-0.4-0.4V0.7
					c0-0.2,0.1-0.4,0.4-0.4h0.8C61,0.3,61.1,0.4,61.1,0.7z"/>
				<path id="XMLID_111_" class="st0" d="M67.9,0.7v18.6c0,0.2-0.1,0.4-0.4,0.4h-0.8c-0.2,0-0.4-0.1-0.4-0.4V0.7
					c0-0.2,0.1-0.4,0.4-0.4h0.8C67.8,0.3,67.9,0.4,67.9,0.7z"/>
			</g>
		</g>
	</g>
</g>
</svg>
